# Blender v2.75 (sub 0) OBJ File: 'arena.blend'
# www.blender.org
mtllib arena.mtl
o Plane
v 4.009371 -0.025108 1.432749
v 4.009371 0.772615 1.432749
v 4.009371 -0.025108 0.635026
v 4.009371 0.772615 0.635026
v 4.807094 -0.025108 1.432749
v 4.807094 0.772615 1.432749
v 4.807094 -0.025108 0.635026
v 4.807094 0.772615 0.635026
v -3.133468 0.004695 1.432749
v -3.133468 0.802418 1.432749
v -3.133468 0.004695 0.635026
v -3.133468 0.802418 0.635026
v -2.335745 0.004695 1.432749
v -2.335745 0.802418 1.432749
v -2.335745 0.004695 0.635026
v -2.335745 0.802418 0.635026
v -3.133468 -0.010606 -2.771854
v -3.133468 0.787117 -2.771854
v -3.133468 -0.010606 -3.569577
v -3.133468 0.787117 -3.569577
v -2.335745 -0.010606 -2.771854
v -2.335745 0.787117 -2.771854
v -2.335745 -0.010606 -3.569577
v -2.335745 0.787117 -3.569577
v 1.720135 -0.021805 -2.771854
v 1.720135 0.775918 -2.771854
v 1.720135 -0.021805 -3.569577
v 1.720135 0.775918 -3.569577
v 2.517858 -0.021805 -2.771854
v 2.517858 0.775918 -2.771854
v 2.517858 -0.021805 -3.569577
v 2.517858 0.775918 -3.569577
v 1.720135 -0.023666 5.531987
v 1.720135 0.774057 5.531987
v 1.720135 -0.023666 4.734264
v 1.720135 0.774057 4.734264
v 2.517858 -0.023666 5.531987
v 2.517858 0.774057 5.531987
v 2.517858 -0.023666 4.734264
v 2.517858 0.774057 4.734264
v -1.325779 -0.038226 5.531987
v -1.325779 0.759497 5.531987
v -1.325779 -0.038226 4.734264
v -1.325779 0.759497 4.734264
v -0.528055 -0.038226 5.531987
v -0.528055 0.759497 5.531987
v -0.528055 -0.038226 4.734264
v -0.528055 0.759497 4.734264
v -7.910829 0.000000 7.910829
v 7.910829 0.000000 7.910829
v -7.910829 0.000000 -7.910829
v 7.910829 0.000000 -7.910829
v 0.000000 0.000000 6.982970
v 1.362310 0.000000 6.848794
v 2.672267 0.000000 6.451423
v 3.879530 0.000000 5.806127
v 4.937705 0.000000 4.937705
v 5.806128 0.000000 3.879530
v 6.451423 0.000000 2.672267
v 6.848794 0.000000 1.362310
v 6.982970 0.000000 0.000001
v 6.848794 0.000000 -1.362309
v 6.451423 0.000000 -2.672266
v 5.806128 0.000000 -3.879530
v 4.937705 0.000000 -4.937705
v 3.879530 0.000000 -5.806128
v 2.672266 0.000000 -6.451423
v 1.362308 0.000000 -6.848794
v -0.000002 0.000000 -6.982970
v -1.362313 0.000000 -6.848794
v -2.672270 0.000000 -6.451421
v -3.879534 0.000000 -5.806125
v -4.937708 0.000000 -4.937702
v -5.806129 0.000000 -3.879526
v -6.451425 0.000000 -2.672262
v -6.848795 0.000000 -1.362304
v -6.982970 0.000000 0.000007
v -6.848793 0.000000 1.362317
v -6.451419 0.000000 2.672274
v -5.806123 0.000000 3.879537
v -4.937699 0.000000 4.937711
v -3.879522 0.000000 5.806132
v -2.672257 0.000000 6.451427
v -1.362299 0.000000 6.848796
v 0.000000 1.643572 6.982970
v 1.362310 1.643572 6.848794
v 2.672267 1.643572 6.451423
v 3.879530 1.643572 5.806127
v 4.937705 1.643572 4.937705
v 5.806128 1.643572 3.879530
v 6.451423 1.643572 2.672267
v 6.848794 1.643572 1.362310
v 6.982970 1.643572 0.000001
v 6.848794 1.643572 -1.362309
v 6.451423 1.643572 -2.672266
v 5.806128 1.643572 -3.879530
v 4.937705 1.643572 -4.937705
v 3.879530 1.643572 -5.806128
v 2.672266 1.643572 -6.451423
v 1.362308 1.643572 -6.848794
v -0.000002 1.643572 -6.982970
v -1.362313 1.643572 -6.848794
v -2.672270 1.643572 -6.451421
v -3.879534 1.643572 -5.806125
v -4.937708 1.643572 -4.937702
v -5.806129 1.643572 -3.879526
v -6.451425 1.643572 -2.672262
v -6.848795 1.643572 -1.362304
v -6.982970 1.643572 0.000007
v -6.848793 1.643572 1.362317
v -6.451419 1.643572 2.672274
v -5.806123 1.643572 3.879537
v -4.937699 1.643572 4.937711
v -3.879522 1.643572 5.806132
v -2.672257 1.643572 6.451427
v -1.362299 1.643572 6.848796
vt 1.000000 0.000000
vt 1.000000 1.000000
vt 0.000000 1.000000
vt 0.999874 0.000126
vt 0.999874 0.770812
vt 0.518196 0.770812
vt 0.456319 0.316766
vt 0.508018 0.290202
vt 0.517944 0.369275
vt 0.099627 0.608485
vt 0.057829 0.665134
vt 0.029441 0.597560
vt 0.464155 0.379000
vt 0.517944 0.449676
vt 0.077298 0.555220
vt 0.009953 0.522485
vt 0.464163 0.442128
vt 0.507987 0.528404
vt 0.061989 0.496108
vt 0.000126 0.442871
vt 0.456268 0.503843
vt 0.488425 0.602396
vt 0.054287 0.433477
vt 0.000335 0.361859
vt 0.440779 0.561752
vt 0.460012 0.668752
vt 0.054482 0.369800
vt 0.010561 0.282656
vt 0.418305 0.613645
vt 0.423879 0.724856
vt 0.062552 0.307594
vt 0.030387 0.208396
vt 0.389716 0.657439
vt 0.381479 0.768587
vt 0.078162 0.249320
vt 0.059012 0.142024
vt 0.356088 0.691441
vt 0.334488 0.798505
vt 0.100682 0.197284
vt 0.095283 0.086165
vt 0.318637 0.714507
vt 0.284680 0.813930
vt 0.319291 0.100374
vt 0.334355 0.016291
vt 0.381406 0.046807
vt 0.129213 0.153545
vt 0.137730 0.042993
vt 0.278891 0.726694
vt 0.233800 0.814020
vt 0.356549 0.124718
vt 0.423890 0.091388
vt 0.162640 0.119828
vt 0.184637 0.014075
vt 0.238492 0.726540
vt 0.183766 0.798421
vt 0.390071 0.160048
vt 0.460072 0.148388
vt 0.199712 0.097469
vt 0.234155 0.000126
vt 0.198908 0.713980
vt 0.136545 0.767556
vt 0.418569 0.205051
vt 0.488489 0.215563
vt 0.239102 0.087419
vt 0.284638 0.000732
vt 0.161635 0.689434
vt 0.094005 0.722549
vt 0.440939 0.257984
vt 0.279684 0.087835
vt 0.128108 0.653812
vt 0.000000 0.000000
vt 0.518196 0.000126
vn -1.000000 0.000000 0.000000
vn 0.000000 0.000000 -1.000000
vn 1.000000 0.000000 0.000000
vn 0.000000 0.000000 1.000000
vn 0.000000 -1.000000 0.000000
vn 0.000000 1.000000 0.000000
vn -0.881900 0.000000 -0.471400
vn 0.634400 0.000000 0.773000
vn -0.956900 0.000000 -0.290300
vn 0.773000 0.000000 0.634400
vn -0.995200 0.000000 -0.098000
vn 0.881900 0.000000 0.471400
vn -0.995200 0.000000 0.098000
vn 0.956900 0.000000 0.290300
vn -0.956900 0.000000 0.290300
vn 0.995200 0.000000 0.098000
vn -0.881900 0.000000 0.471400
vn 0.995200 0.000000 -0.098000
vn -0.773000 0.000000 0.634400
vn 0.956900 0.000000 -0.290300
vn -0.634400 0.000000 0.773000
vn 0.881900 0.000000 -0.471400
vn -0.471400 0.000000 0.881900
vn -0.098000 0.000000 -0.995200
vn 0.773000 0.000000 -0.634400
vn -0.290300 0.000000 0.956900
vn -0.290300 0.000000 -0.956900
vn 0.634400 0.000000 -0.773000
vn -0.098000 0.000000 0.995200
vn -0.471400 0.000000 -0.881900
vn 0.471400 0.000000 -0.881900
vn 0.098000 0.000000 0.995200
vn -0.634400 0.000000 -0.773000
vn 0.290300 0.000000 -0.956900
vn 0.290300 0.000000 0.956900
vn -0.773000 0.000000 -0.634400
vn 0.098000 0.000000 -0.995200
vn 0.471400 0.000000 0.881900
usemtl Material.001
s off
f 4/1/1 3/2/1 1/3/1
f 8/1/2 7/2/2 3/3/2
f 6/1/3 5/2/3 7/3/3
f 2/1/4 1/2/4 5/3/4
f 3/1/5 7/2/5 5/3/5
f 8/1/6 4/2/6 2/3/6
f 12/1/1 11/2/1 9/3/1
f 16/1/2 15/2/2 11/3/2
f 14/1/3 13/2/3 15/3/3
f 10/1/4 9/2/4 13/3/4
f 11/1/5 15/2/5 13/3/5
f 16/1/6 12/2/6 10/3/6
f 20/1/1 19/2/1 17/3/1
f 24/1/2 23/2/2 19/3/2
f 22/1/3 21/2/3 23/3/3
f 18/1/4 17/2/4 21/3/4
f 19/1/5 23/2/5 21/3/5
f 24/1/6 20/2/6 18/3/6
f 28/1/1 27/2/1 25/3/1
f 32/1/2 31/2/2 27/3/2
f 30/1/3 29/2/3 31/3/3
f 26/1/4 25/2/4 29/3/4
f 27/1/5 31/2/5 29/3/5
f 32/1/6 28/2/6 26/3/6
f 36/1/1 35/2/1 33/3/1
f 40/1/2 39/2/2 35/3/2
f 38/1/3 37/2/3 39/3/3
f 34/1/4 33/2/4 37/3/4
f 35/1/5 39/2/5 37/3/5
f 40/1/6 36/2/6 34/3/6
f 44/1/1 43/2/1 41/3/1
f 48/1/2 47/2/2 43/3/2
f 46/1/3 45/2/3 47/3/3
f 42/1/4 41/2/4 45/3/4
f 43/1/5 47/2/5 45/3/5
f 48/1/6 44/2/6 42/3/6
f 50/4/6 52/5/6 51/6/6
f 58/7/7 90/8/7 91/9/7
f 72/10/8 104/11/8 105/12/8
f 59/13/9 91/9/9 92/14/9
f 73/15/10 105/12/10 106/16/10
f 60/17/11 92/14/11 93/18/11
f 74/19/12 106/16/12 107/20/12
f 61/21/13 93/18/13 94/22/13
f 75/23/14 107/20/14 108/24/14
f 62/25/15 94/22/15 95/26/15
f 76/27/16 108/24/16 109/28/16
f 63/29/17 95/26/17 96/30/17
f 77/31/18 109/28/18 110/32/18
f 64/33/19 96/30/19 97/34/19
f 78/35/20 110/32/20 111/36/20
f 65/37/21 97/34/21 98/38/21
f 79/39/22 111/36/22 112/40/22
f 66/41/23 98/38/23 99/42/23
f 53/43/24 85/44/24 86/45/24
f 80/46/25 112/40/25 113/47/25
f 67/48/26 99/42/26 100/49/26
f 54/50/27 86/45/27 87/51/27
f 81/52/28 113/47/28 114/53/28
f 68/54/29 100/49/29 101/55/29
f 55/56/30 87/51/30 88/57/30
f 82/58/31 114/53/31 115/59/31
f 69/60/32 101/55/32 102/61/32
f 56/62/33 88/57/33 89/63/33
f 83/64/34 115/59/34 116/65/34
f 70/66/35 102/61/35 103/67/35
f 57/68/36 89/63/36 90/8/36
f 84/69/37 116/65/37 85/44/37
f 71/70/38 103/67/38 104/11/38
f 2/71/1 4/1/1 1/3/1
f 4/71/2 8/1/2 3/3/2
f 8/71/3 6/1/3 7/3/3
f 6/71/4 2/1/4 5/3/4
f 1/71/5 3/1/5 5/3/5
f 6/71/6 8/1/6 2/3/6
f 10/71/1 12/1/1 9/3/1
f 12/71/2 16/1/2 11/3/2
f 16/71/3 14/1/3 15/3/3
f 14/71/4 10/1/4 13/3/4
f 9/71/5 11/1/5 13/3/5
f 14/71/6 16/1/6 10/3/6
f 18/71/1 20/1/1 17/3/1
f 20/71/2 24/1/2 19/3/2
f 24/71/3 22/1/3 23/3/3
f 22/71/4 18/1/4 21/3/4
f 17/71/5 19/1/5 21/3/5
f 22/71/6 24/1/6 18/3/6
f 26/71/1 28/1/1 25/3/1
f 28/71/2 32/1/2 27/3/2
f 32/71/3 30/1/3 31/3/3
f 30/71/4 26/1/4 29/3/4
f 25/71/5 27/1/5 29/3/5
f 30/71/6 32/1/6 26/3/6
f 34/71/1 36/1/1 33/3/1
f 36/71/2 40/1/2 35/3/2
f 40/71/3 38/1/3 39/3/3
f 38/71/4 34/1/4 37/3/4
f 33/71/5 35/1/5 37/3/5
f 38/71/6 40/1/6 34/3/6
f 42/71/1 44/1/1 41/3/1
f 44/71/2 48/1/2 43/3/2
f 48/71/3 46/1/3 47/3/3
f 46/71/4 42/1/4 45/3/4
f 41/71/5 43/1/5 45/3/5
f 46/71/6 48/1/6 42/3/6
f 49/72/6 50/4/6 51/6/6
f 59/13/7 58/7/7 91/9/7
f 73/15/8 72/10/8 105/12/8
f 60/17/9 59/13/9 92/14/9
f 74/19/10 73/15/10 106/16/10
f 61/21/11 60/17/11 93/18/11
f 75/23/12 74/19/12 107/20/12
f 62/25/13 61/21/13 94/22/13
f 76/27/14 75/23/14 108/24/14
f 63/29/15 62/25/15 95/26/15
f 77/31/16 76/27/16 109/28/16
f 64/33/17 63/29/17 96/30/17
f 78/35/18 77/31/18 110/32/18
f 65/37/19 64/33/19 97/34/19
f 79/39/20 78/35/20 111/36/20
f 66/41/21 65/37/21 98/38/21
f 80/46/22 79/39/22 112/40/22
f 67/48/23 66/41/23 99/42/23
f 54/50/24 53/43/24 86/45/24
f 81/52/25 80/46/25 113/47/25
f 68/54/26 67/48/26 100/49/26
f 55/56/27 54/50/27 87/51/27
f 82/58/28 81/52/28 114/53/28
f 69/60/29 68/54/29 101/55/29
f 56/62/30 55/56/30 88/57/30
f 83/64/31 82/58/31 115/59/31
f 70/66/32 69/60/32 102/61/32
f 57/68/33 56/62/33 89/63/33
f 84/69/34 83/64/34 116/65/34
f 71/70/35 70/66/35 103/67/35
f 58/7/36 57/68/36 90/8/36
f 53/43/37 84/69/37 85/44/37
f 72/10/38 71/70/38 104/11/38
