# Blender v2.75 (sub 0) OBJ File: 'arena.blend'
# www.blender.org
o Cube.005_Cube.006
v 6.014057 -0.037662 2.149123
v 6.014057 1.158922 2.149123
v 6.014057 -0.037662 0.952539
v 6.014057 1.158922 0.952539
v 7.210641 -0.037662 2.149123
v 7.210641 1.158922 2.149123
v 7.210641 -0.037662 0.952539
v 7.210641 1.158922 0.952539
vn -1.000000 0.000000 0.000000
vn 0.000000 0.000000 -1.000000
vn 1.000000 0.000000 0.000000
vn 0.000000 0.000000 1.000000
vn 0.000000 -1.000000 0.000000
vn 0.000000 1.000000 0.000000
s off
f 4//1 3//1 1//1
f 8//2 7//2 3//2
f 6//3 5//3 7//3
f 2//4 1//4 5//4
f 3//5 7//5 5//5
f 8//6 4//6 2//6
f 2//1 4//1 1//1
f 4//2 8//2 3//2
f 8//3 6//3 7//3
f 6//4 2//4 5//4
f 1//5 3//5 5//5
f 6//6 8//6 2//6
o Cube.004_Cube.005
v -4.700202 0.007043 2.149123
v -4.700202 1.203628 2.149123
v -4.700202 0.007043 0.952539
v -4.700202 1.203628 0.952539
v -3.503617 0.007043 2.149123
v -3.503617 1.203628 2.149123
v -3.503617 0.007043 0.952539
v -3.503617 1.203628 0.952539
vn -1.000000 0.000000 0.000000
vn 0.000000 0.000000 -1.000000
vn 1.000000 0.000000 0.000000
vn 0.000000 0.000000 1.000000
vn 0.000000 -1.000000 0.000000
vn 0.000000 1.000000 0.000000
s off
f 12//7 11//7 9//7
f 16//8 15//8 11//8
f 14//9 13//9 15//9
f 10//10 9//10 13//10
f 11//11 15//11 13//11
f 16//12 12//12 10//12
f 10//7 12//7 9//7
f 12//8 16//8 11//8
f 16//9 14//9 15//9
f 14//10 10//10 13//10
f 9//11 11//11 13//11
f 14//12 16//12 10//12
o Cube.003_Cube.004
v -4.700202 -0.015909 -4.157781
v -4.700202 1.180676 -4.157781
v -4.700202 -0.015909 -5.354365
v -4.700202 1.180676 -5.354365
v -3.503617 -0.015909 -4.157781
v -3.503617 1.180676 -4.157781
v -3.503617 -0.015909 -5.354365
v -3.503617 1.180676 -5.354365
vn -1.000000 0.000000 0.000000
vn 0.000000 0.000000 -1.000000
vn 1.000000 0.000000 0.000000
vn 0.000000 0.000000 1.000000
vn 0.000000 -1.000000 0.000000
vn 0.000000 1.000000 0.000000
s off
f 20//13 19//13 17//13
f 24//14 23//14 19//14
f 22//15 21//15 23//15
f 18//16 17//16 21//16
f 19//17 23//17 21//17
f 24//18 20//18 18//18
f 18//13 20//13 17//13
f 20//14 24//14 19//14
f 24//15 22//15 23//15
f 22//16 18//16 21//16
f 17//17 19//17 21//17
f 22//18 24//18 18//18
o Cube.002_Cube.003
v 2.580202 -0.032708 -4.157781
v 2.580202 1.163877 -4.157781
v 2.580202 -0.032708 -5.354365
v 2.580202 1.163877 -5.354365
v 3.776787 -0.032708 -4.157781
v 3.776787 1.163877 -4.157781
v 3.776787 -0.032708 -5.354365
v 3.776787 1.163877 -5.354365
vn -1.000000 0.000000 0.000000
vn 0.000000 0.000000 -1.000000
vn 1.000000 0.000000 0.000000
vn 0.000000 0.000000 1.000000
vn 0.000000 -1.000000 0.000000
vn 0.000000 1.000000 0.000000
s off
f 28//19 27//19 25//19
f 32//20 31//20 27//20
f 30//21 29//21 31//21
f 26//22 25//22 29//22
f 27//23 31//23 29//23
f 32//24 28//24 26//24
f 26//19 28//19 25//19
f 28//20 32//20 27//20
f 32//21 30//21 31//21
f 30//22 26//22 29//22
f 25//23 27//23 29//23
f 30//24 32//24 26//24
o Cube.001_Cube.002
v 2.580202 -0.035499 8.297980
v 2.580202 1.161086 8.297980
v 2.580202 -0.035499 7.101396
v 2.580202 1.161086 7.101396
v 3.776787 -0.035499 8.297980
v 3.776787 1.161086 8.297980
v 3.776787 -0.035499 7.101396
v 3.776787 1.161086 7.101396
vn -1.000000 0.000000 0.000000
vn 0.000000 0.000000 -1.000000
vn 1.000000 0.000000 0.000000
vn 0.000000 0.000000 1.000000
vn 0.000000 -1.000000 0.000000
vn 0.000000 1.000000 0.000000
s off
f 36//25 35//25 33//25
f 40//26 39//26 35//26
f 38//27 37//27 39//27
f 34//28 33//28 37//28
f 35//29 39//29 37//29
f 40//30 36//30 34//30
f 34//25 36//25 33//25
f 36//26 40//26 35//26
f 40//27 38//27 39//27
f 38//28 34//28 37//28
f 33//29 35//29 37//29
f 38//30 40//30 34//30
o Cube_Cube.001
v -1.988668 -0.057339 8.297980
v -1.988668 1.139246 8.297980
v -1.988668 -0.057339 7.101396
v -1.988668 1.139246 7.101396
v -0.792083 -0.057339 8.297980
v -0.792083 1.139246 8.297980
v -0.792083 -0.057339 7.101396
v -0.792083 1.139246 7.101396
vn -1.000000 0.000000 0.000000
vn 0.000000 0.000000 -1.000000
vn 1.000000 0.000000 0.000000
vn 0.000000 0.000000 1.000000
vn 0.000000 -1.000000 0.000000
vn 0.000000 1.000000 0.000000
s off
f 44//31 43//31 41//31
f 48//32 47//32 43//32
f 46//33 45//33 47//33
f 42//34 41//34 45//34
f 43//35 47//35 45//35
f 48//36 44//36 42//36
f 42//31 44//31 41//31
f 44//32 48//32 43//32
f 48//33 46//33 47//33
f 46//34 42//34 45//34
f 41//35 43//35 45//35
f 46//36 48//36 42//36
o Plane
v -11.866243 0.000000 11.866243
v 11.866243 0.000000 11.866243
v -11.866243 0.000000 -11.866243
v 11.866243 0.000000 -11.866243
vn 0.000000 1.000000 0.000000
s off
f 50//37 52//37 51//37
f 49//37 50//37 51//37
o Circle
v 0.000000 0.000000 10.474455
v 2.043465 0.000000 10.273190
v 4.008400 0.000000 9.677135
v 5.819295 0.000000 8.709190
v 7.406558 0.000000 7.406558
v 8.709191 0.000000 5.819295
v 9.677135 0.000000 4.008400
v 10.273190 0.000000 2.043465
v 10.474455 0.000000 0.000001
v 10.273191 0.000000 -2.043463
v 9.677135 0.000000 -4.008399
v 8.709191 0.000000 -5.819295
v 7.406558 0.000000 -7.406558
v 5.819295 0.000000 -8.709191
v 4.008399 0.000000 -9.677135
v 2.043462 0.000000 -10.273191
v -0.000003 0.000000 -10.474455
v -2.043469 0.000000 -10.273190
v -4.008405 0.000000 -9.677133
v -5.819301 0.000000 -8.709188
v -7.406563 0.000000 -7.406554
v -8.709195 0.000000 -5.819289
v -9.677138 0.000000 -4.008392
v -10.273192 0.000000 -2.043456
v -10.474455 0.000000 0.000010
v -10.273189 0.000000 2.043476
v -9.677130 0.000000 4.008411
v -8.709184 0.000000 5.819306
v -7.406549 0.000000 7.406567
v -5.819283 0.000000 8.709199
v -4.008386 0.000000 9.677140
v -2.043449 0.000000 10.273194
v 0.000000 2.465359 10.474455
v 2.043465 2.465359 10.273190
v 4.008400 2.465359 9.677135
v 5.819295 2.465359 8.709190
v 7.406558 2.465359 7.406558
v 8.709191 2.465359 5.819295
v 9.677135 2.465359 4.008400
v 10.273190 2.465359 2.043465
v 10.474455 2.465359 0.000001
v 10.273191 2.465359 -2.043463
v 9.677135 2.465359 -4.008399
v 8.709191 2.465359 -5.819295
v 7.406558 2.465359 -7.406558
v 5.819295 2.465359 -8.709191
v 4.008399 2.465359 -9.677135
v 2.043462 2.465359 -10.273191
v -0.000003 2.465359 -10.474455
v -2.043469 2.465359 -10.273190
v -4.008405 2.465359 -9.677133
v -5.819301 2.465359 -8.709188
v -7.406563 2.465359 -7.406554
v -8.709195 2.465359 -5.819289
v -9.677138 2.465359 -4.008392
v -10.273192 2.465359 -2.043456
v -10.474455 2.465359 0.000010
v -10.273189 2.465359 2.043476
v -9.677130 2.465359 4.008411
v -8.709184 2.465359 5.819306
v -7.406549 2.465359 7.406567
v -5.819283 2.465359 8.709199
v -4.008386 2.465359 9.677140
v -2.043449 2.465359 10.273194
vn -0.881900 0.000000 -0.471400
vn 0.634400 0.000000 0.773000
vn -0.956900 0.000000 -0.290300
vn 0.773000 0.000000 0.634400
vn -0.995200 0.000000 -0.098000
vn 0.881900 0.000000 0.471400
vn -0.995200 0.000000 0.098000
vn 0.956900 0.000000 0.290300
vn -0.956900 0.000000 0.290300
vn 0.995200 0.000000 0.098000
vn -0.881900 0.000000 0.471400
vn 0.995200 0.000000 -0.098000
vn -0.773000 0.000000 0.634400
vn 0.956900 0.000000 -0.290300
vn -0.634400 0.000000 0.773000
vn 0.881900 0.000000 -0.471400
vn -0.471400 0.000000 0.881900
vn -0.098000 0.000000 -0.995200
vn 0.773000 0.000000 -0.634400
vn -0.290300 0.000000 0.956900
vn -0.290300 0.000000 -0.956900
vn 0.634400 0.000000 -0.773000
vn -0.098000 0.000000 0.995200
vn -0.471400 0.000000 -0.881900
vn 0.471400 0.000000 -0.881900
vn 0.098000 0.000000 0.995200
vn -0.634400 0.000000 -0.773000
vn 0.290300 0.000000 -0.956900
vn 0.290300 0.000000 0.956900
vn -0.773000 0.000000 -0.634400
vn 0.098000 0.000000 -0.995200
vn 0.471400 0.000000 0.881900
s off
f 58//38 90//38 91//38
f 72//39 104//39 105//39
f 59//40 91//40 92//40
f 73//41 105//41 106//41
f 60//42 92//42 93//42
f 74//43 106//43 107//43
f 61//44 93//44 94//44
f 75//45 107//45 108//45
f 62//46 94//46 95//46
f 76//47 108//47 109//47
f 63//48 95//48 96//48
f 77//49 109//49 110//49
f 64//50 96//50 97//50
f 78//51 110//51 111//51
f 65//52 97//52 98//52
f 79//53 111//53 112//53
f 66//54 98//54 99//54
f 53//55 85//55 86//55
f 80//56 112//56 113//56
f 67//57 99//57 100//57
f 54//58 86//58 87//58
f 81//59 113//59 114//59
f 68//60 100//60 101//60
f 55//61 87//61 88//61
f 82//62 114//62 115//62
f 69//63 101//63 102//63
f 56//64 88//64 89//64
f 83//65 115//65 116//65
f 70//66 102//66 103//66
f 57//67 89//67 90//67
f 84//68 116//68 85//68
f 71//69 103//69 104//69
f 59//38 58//38 91//38
f 73//39 72//39 105//39
f 60//40 59//40 92//40
f 74//41 73//41 106//41
f 61//42 60//42 93//42
f 75//43 74//43 107//43
f 62//44 61//44 94//44
f 76//45 75//45 108//45
f 63//46 62//46 95//46
f 77//47 76//47 109//47
f 64//48 63//48 96//48
f 78//49 77//49 110//49
f 65//50 64//50 97//50
f 79//51 78//51 111//51
f 66//52 65//52 98//52
f 80//53 79//53 112//53
f 67//54 66//54 99//54
f 54//55 53//55 86//55
f 81//56 80//56 113//56
f 68//57 67//57 100//57
f 55//58 54//58 87//58
f 82//59 81//59 114//59
f 69//60 68//60 101//60
f 56//61 55//61 88//61
f 83//62 82//62 115//62
f 70//63 69//63 102//63
f 57//64 56//64 89//64
f 84//65 83//65 116//65
f 71//66 70//66 103//66
f 58//67 57//67 90//67
f 53//68 84//68 85//68
f 72//69 71//69 104//69
