# Blender v2.75 (sub 0) OBJ File: 'arena_floor.blend'
# www.blender.org
o Circle_Circle.001
v 0.000000 0.000000 -111.546196
v -21.761583 0.000000 -109.402863
v -42.686882 0.000000 -103.055244
v -61.971748 0.000000 -92.747269
v -78.875069 0.000000 -78.875069
v -92.747276 0.000000 -61.971741
v -103.055244 0.000000 -42.686882
v -109.402863 0.000000 -21.761587
v -111.546196 0.000000 -0.000008
v -109.402870 0.000000 21.761570
v -103.055252 0.000000 42.686863
v -92.747276 0.000000 61.971741
v -78.875069 0.000000 78.875069
v -61.971741 0.000000 92.747276
v -42.686863 0.000000 103.055260
v -21.761557 0.000000 109.402870
v 0.000036 0.000000 111.546196
v 21.761629 0.000000 109.402855
v 42.686932 0.000000 103.055222
v 61.971802 0.000000 92.747238
v 78.875122 0.000000 78.875023
v 92.747314 0.000000 61.971680
v 103.055283 0.000000 42.686798
v 109.402885 0.000000 21.761488
v 111.546196 0.000000 -0.000108
v 109.402847 0.000000 -21.761698
v 103.055199 0.000000 -42.686996
v 92.747200 0.000000 -61.971859
v 78.874969 0.000000 -78.875168
v 61.971622 0.000000 -92.747360
v 42.686729 0.000000 -103.055313
v 21.761415 0.000000 -109.402901
v 0.000000 26.688181 -111.546196
v -21.761583 26.688181 -109.402863
v -42.686882 26.688181 -103.055244
v -61.971748 26.688181 -92.747269
v -78.875069 26.688181 -78.875069
v -92.747276 26.688181 -61.971741
v -103.055244 26.688181 -42.686882
v -109.402863 26.688181 -21.761587
v -111.546196 26.688181 -0.000008
v -109.402870 26.688181 21.761570
v -103.055252 26.688181 42.686863
v -92.747276 26.688181 61.971741
v -78.875069 26.688181 78.875069
v -61.971741 26.688181 92.747276
v -42.686863 26.688181 103.055260
v -21.761557 26.688181 109.402870
v 0.000036 26.688181 111.546196
v 21.761629 26.688181 109.402855
v 42.686932 26.688181 103.055222
v 61.971802 26.688181 92.747238
v 78.875122 26.688181 78.875023
v 92.747314 26.688181 61.971680
v 103.055283 26.688181 42.686798
v 109.402885 26.688181 21.761488
v 111.546196 26.688181 -0.000108
v 109.402847 26.688181 -21.761698
v 103.055199 26.688181 -42.686996
v 92.747200 26.688181 -61.971859
v 78.874969 26.688181 -78.875168
v 61.971622 26.688181 -92.747360
v 42.686729 26.688181 -103.055313
v 21.761415 26.688181 -109.402901
vt 0.093872 0.685172
vt 0.034740 0.735764
vt 0.011742 0.644737
vt 0.460679 0.194609
vt 0.503020 0.112375
vt 0.545671 0.182368
vt 0.075964 0.613196
vt 0.000078 0.548234
vt 0.493916 0.249852
vt 0.578962 0.264546
vt 0.066927 0.536911
vt 0.000193 0.449919
vt 0.519818 0.314705
vt 0.601658 0.355614
vt 0.067101 0.459257
vt 0.012122 0.353551
vt 0.537404 0.386713
vt 0.613077 0.451988
vt 0.076588 0.383192
vt 0.035363 0.262853
vt 0.546256 0.463078
vt 0.612912 0.550058
vt 0.094901 0.311572
vt 0.068988 0.181283
vt 0.546070 0.540815
vt 0.601147 0.646209
vt 0.121429 0.247147
vt 0.111569 0.111853
vt 0.536753 0.616936
vt 0.578178 0.736825
vt 0.154821 0.192286
vt 0.161650 0.057132
vt 0.518646 0.688574
vt 0.544844 0.818464
vt 0.194058 0.149318
vt 0.217425 0.019356
vt 0.282717 0.894607
vt 0.276774 0.999922
vt 0.217328 0.980601
vt 0.492419 0.753009
vt 0.502397 0.888018
vt 0.237712 0.119858
vt 0.276734 0.000078
vt 0.236313 0.879040
vt 0.161326 0.942706
vt 0.459124 0.807775
vt 0.452370 0.942801
vt 0.284063 0.105013
vt 0.337284 0.000099
vt 0.192599 0.848897
vt 0.110964 0.887730
vt 0.419935 0.850709
vt 0.396635 0.980617
vt 0.331345 0.105382
vt 0.396702 0.019437
vt 0.153285 0.805362
vt 0.068228 0.817827
vt 0.376338 0.880162
vt 0.337328 0.999922
vt 0.377702 0.120958
vt 0.452691 0.057348
vt 0.119978 0.750066
vt 0.329993 0.894990
vt 0.421401 0.151093
vn 0.881900 0.000000 0.471400
vn -0.634400 0.000000 -0.773000
vn 0.956900 0.000000 0.290300
vn -0.773000 0.000000 -0.634400
vn 0.995200 0.000000 0.098000
vn -0.881900 0.000000 -0.471400
vn 0.995200 0.000000 -0.098000
vn -0.956900 0.000000 -0.290300
vn 0.956900 0.000000 -0.290300
vn -0.995200 0.000000 -0.098000
vn 0.881900 0.000000 -0.471400
vn -0.995200 0.000000 0.098000
vn 0.773000 0.000000 -0.634400
vn -0.956900 0.000000 0.290300
vn 0.634400 0.000000 -0.773000
vn -0.881900 0.000000 0.471400
vn 0.471400 0.000000 -0.881900
vn 0.098000 0.000000 0.995200
vn -0.773000 0.000000 0.634400
vn 0.290300 0.000000 -0.956900
vn 0.290300 0.000000 0.956900
vn -0.634400 0.000000 0.773000
vn 0.098000 0.000000 -0.995200
vn 0.471400 0.000000 0.881900
vn -0.471400 0.000000 0.881900
vn -0.098000 0.000000 -0.995200
vn 0.634400 0.000000 0.773000
vn -0.290300 0.000000 0.956900
vn -0.290300 0.000000 -0.956900
vn 0.773000 0.000000 0.634400
vn -0.098000 0.000000 0.995200
vn -0.471400 0.000000 -0.881900
s off
f 6/1/1 38/2/1 39/3/1
f 20/4/2 52/5/2 53/6/2
f 7/7/3 39/3/3 40/8/3
f 21/9/4 53/6/4 54/10/4
f 8/11/5 40/8/5 41/12/5
f 22/13/6 54/10/6 55/14/6
f 9/15/7 41/12/7 42/16/7
f 23/17/8 55/14/8 56/18/8
f 10/19/9 42/16/9 43/20/9
f 24/21/10 56/18/10 57/22/10
f 11/23/11 43/20/11 44/24/11
f 25/25/12 57/22/12 58/26/12
f 12/27/13 44/24/13 45/28/13
f 26/29/14 58/26/14 59/30/14
f 13/31/15 45/28/15 46/32/15
f 27/33/16 59/30/16 60/34/16
f 14/35/17 46/32/17 47/36/17
f 1/37/18 33/38/18 34/39/18
f 28/40/19 60/34/19 61/41/19
f 15/42/20 47/36/20 48/43/20
f 2/44/21 34/39/21 35/45/21
f 29/46/22 61/41/22 62/47/22
f 16/48/23 48/43/23 49/49/23
f 3/50/24 35/45/24 36/51/24
f 30/52/25 62/47/25 63/53/25
f 17/54/26 49/49/26 50/55/26
f 4/56/27 36/51/27 37/57/27
f 31/58/28 63/53/28 64/59/28
f 18/60/29 50/55/29 51/61/29
f 5/62/30 37/57/30 38/2/30
f 32/63/31 64/59/31 33/38/31
f 19/64/32 51/61/32 52/5/32
f 7/7/1 6/1/1 39/3/1
f 21/9/2 20/4/2 53/6/2
f 8/11/3 7/7/3 40/8/3
f 22/13/4 21/9/4 54/10/4
f 9/15/5 8/11/5 41/12/5
f 23/17/6 22/13/6 55/14/6
f 10/19/7 9/15/7 42/16/7
f 24/21/8 23/17/8 56/18/8
f 11/23/9 10/19/9 43/20/9
f 25/25/10 24/21/10 57/22/10
f 12/27/11 11/23/11 44/24/11
f 26/29/12 25/25/12 58/26/12
f 13/31/13 12/27/13 45/28/13
f 27/33/14 26/29/14 59/30/14
f 14/35/15 13/31/15 46/32/15
f 28/40/16 27/33/16 60/34/16
f 15/42/17 14/35/17 47/36/17
f 2/44/18 1/37/18 34/39/18
f 29/46/19 28/40/19 61/41/19
f 16/48/20 15/42/20 48/43/20
f 3/50/21 2/44/21 35/45/21
f 30/52/22 29/46/22 62/47/22
f 17/54/23 16/48/23 49/49/23
f 4/56/24 3/50/24 36/51/24
f 31/58/25 30/52/25 63/53/25
f 18/60/26 17/54/26 50/55/26
f 5/62/27 4/56/27 37/57/27
f 32/63/28 31/58/28 64/59/28
f 19/64/29 18/60/29 51/61/29
f 6/1/30 5/62/30 38/2/30
f 1/37/31 32/63/31 33/38/31
f 20/4/32 19/64/32 52/5/32
